<?xml version="1.0" standalone="no"?>
<!DOCTYPE svg PUBLIC "-//W3C//DTD SVG 20010904//EN"
 "http://www.w3.org/TR/2001/REC-SVG-20010904/DTD/svg10.dtd">
<svg version="1.0" xmlns="http://www.w3.org/2000/svg"
 width="725.000000pt" height="513.000000pt" viewBox="0 0 725.000000 513.000000"
 preserveAspectRatio="xMidYMid meet">
<metadata>
Created by potrace 1.16, written by Peter Selinger 2001-2019
</metadata>
<g transform="translate(0.000000,513.000000) scale(0.100000,-0.100000)"
fill="#000000" stroke="none">
<path d="M2413 4988 c-6 -7 -13 -20 -18 -28 -6 -12 -5 -13 6 -2 21 19 67 15
74 -8 8 -24 -11 -60 -30 -60 -25 0 -17 -15 15 -27 24 -9 30 -17 30 -41 0 -42
-23 -59 -61 -45 -17 7 -31 7 -35 2 -23 -37 78 -36 108 1 23 28 23 78 1 102
-14 16 -15 23 -5 38 15 25 15 53 0 68 -16 16 -73 15 -85 0z"/>
<path d="M3553 4929 c14 -8 17 -25 17 -94 0 -69 -3 -86 -17 -94 -14 -8 -4 -10
42 -11 46 0 56 3 47 12 -14 14 -16 136 -3 157 5 8 16 11 25 8 13 -5 16 -22 16
-80 0 -43 -5 -78 -12 -85 -9 -9 1 -12 48 -12 45 1 55 3 42 11 -15 8 -18 24
-18 85 0 41 -5 84 -10 95 -12 21 -50 25 -81 9 -13 -7 -19 -7 -19 0 0 5 -21 10
-47 10 -38 -1 -44 -3 -30 -11z"/>
<path d="M2152 4813 c-10 -4 -7 -9 9 -17 18 -9 27 -29 44 -95 11 -47 26 -86
34 -89 14 -5 61 36 61 52 0 6 -7 2 -15 -8 -19 -25 -29 -14 -43 42 -8 36 -7 45
10 67 11 14 28 24 40 22 25 -3 36 21 13 29 -10 4 -27 -4 -45 -21 -17 -16 -31
-27 -32 -24 -2 2 -8 13 -14 24 -11 20 -38 28 -62 18z"/>
<path d="M2171 4669 c-16 -21 -28 -28 -41 -24 -21 7 -37 -12 -22 -27 16 -16
45 -1 71 37 30 44 23 56 -8 14z"/>
<path d="M1858 4608 c-8 -13 -36 -62 -62 -110 l-48 -88 56 0 56 0 0 -229 0
-229 -87 -63 c-141 -103 -274 -222 -375 -337 -94 -107 -198 -244 -198 -260 0
-5 60 -67 133 -138 133 -130 292 -267 445 -382 l82 -63 0 -156 0 -156 -50 -93
c-27 -51 -50 -98 -50 -104 0 -8 14 -9 44 -5 43 7 43 7 49 -27 4 -18 7 -91 8
-163 l2 -130 -127 -124 -126 -125 -34 33 c-18 18 -36 29 -39 24 -3 -4 -17 -51
-31 -103 l-25 -95 -668 -662 -668 -661 -37 36 c-21 20 -39 34 -41 31 -6 -7
-67 -222 -64 -225 4 -4 219 56 226 62 3 3 -12 21 -32 42 l-37 37 658 656 657
656 95 28 c52 15 106 32 119 37 l24 9 -33 34 -33 34 31 38 c17 21 67 74 111
118 45 44 81 85 81 92 0 7 9 13 20 13 11 0 20 -5 20 -11 0 -7 60 -8 194 -3
l195 7 3 -51 3 -50 90 54 90 53 210 1 211 0 50 -52 c235 -244 434 -599 544
-971 21 -71 40 -130 42 -132 2 -3 46 55 98 128 142 200 281 368 419 506 l125
126 8 -30 c86 -325 248 -880 257 -883 6 -2 11 3 11 10 0 8 38 279 85 602 47
323 85 589 85 591 0 8 100 56 167 81 l63 24 1060 0 1060 0 0 -55 c0 -30 3 -55
6 -55 12 0 214 114 209 118 -2 3 -51 31 -107 62 l-103 57 -3 -54 -3 -53 -1032
1 -1032 1 65 22 c371 131 419 150 562 221 86 44 235 131 258 152 2 2 -59 68
-136 146 -152 153 -271 287 -258 287 5 0 -1 8 -13 18 -27 21 -95 108 -304 387
-91 121 -208 272 -259 335 -117 144 -385 413 -510 511 -194 153 -424 292 -661
399 l-117 53 -12 73 c-7 41 -18 74 -24 74 -5 0 -32 -21 -58 -47 l-48 -48 -48
17 c-48 17 -50 17 -193 -16 -467 -109 -880 -265 -1192 -450 -43 -25 -80 -46
-82 -46 -3 0 -5 99 -5 220 l0 220 55 0 c30 0 55 1 55 3 0 2 -26 51 -59 110
-57 105 -59 107 -73 85z m1479 -153 c34 -14 35 -16 19 -33 -22 -26 -21 -27 24
-41 22 -6 40 -17 40 -24 0 -7 -12 -52 -27 -101 -25 -81 -30 -90 -60 -103 -34
-13 -35 -13 -233 99 -109 62 -197 114 -195 116 2 2 91 26 197 52 106 27 194
49 196 49 1 1 19 -6 39 -14z m336 -136 c61 -28 162 -79 222 -112 114 -63 289
-176 283 -182 -14 -14 -325 -119 -321 -108 4 10 -21 13 -121 13 l-126 0 -115
77 c-122 81 -118 75 -95 138 6 14 48 35 151 74 79 30 148 58 154 63 22 20 -32
5 -151 -42 -70 -27 -131 -50 -135 -50 -4 0 5 36 19 81 25 76 28 80 52 74 14
-3 36 -9 49 -12 21 -5 23 -3 18 16 -3 11 -3 21 -1 21 3 0 55 -23 117 -51z
m-605 -70 c109 -61 199 -113 201 -115 2 -2 -13 -11 -35 -20 -21 -8 -130 -56
-241 -106 -123 -54 -207 -87 -215 -82 -7 4 -93 64 -192 131 -98 68 -183 122
-189 120 -9 -3 119 -96 311 -226 34 -23 62 -44 62 -46 0 -3 -35 -22 -78 -44
-43 -22 -140 -76 -216 -120 -76 -45 -139 -81 -141 -81 -2 0 -86 53 -186 118
-101 65 -199 127 -218 139 l-33 20 83 51 c189 113 448 229 697 311 81 27 156
51 167 54 11 3 22 5 23 6 2 0 92 -49 200 -110z m286 -124 c-7 -17 -20 -20 -28
-6 -4 5 0 12 6 14 23 9 28 7 22 -8z m-17 -49 c-2 -6 -35 -110 -72 -231 -37
-121 -69 -222 -71 -223 -3 -5 -368 267 -372 277 -3 9 161 88 343 165 122 51
130 53 152 39 13 -9 22 -21 20 -27z m172 -102 c72 -48 133 -96 139 -109 11
-24 6 -27 -194 -131 -113 -58 -207 -104 -210 -102 -2 3 25 98 61 212 36 114
65 210 65 212 0 9 17 0 139 -82z m782 -30 c259 -203 447 -413 836 -929 83
-110 167 -220 187 -245 20 -25 36 -48 36 -52 0 -4 -10 -10 -22 -13 -27 -8
-297 -95 -314 -102 -6 -2 -63 56 -127 129 -63 73 -151 174 -196 223 l-81 90
72 35 c40 19 120 57 178 84 58 27 99 51 92 53 -7 3 -90 -32 -185 -76 l-171
-81 -188 187 c-103 103 -184 191 -179 196 4 4 93 44 196 87 103 44 190 82 193
85 22 21 -31 4 -206 -70 -111 -47 -207 -85 -213 -85 -6 0 -65 48 -131 107
-103 92 -117 108 -100 114 11 4 23 12 26 18 4 6 14 3 26 -9 20 -20 51 -17 71
6 9 11 8 14 -5 14 -13 0 -16 12 -16 72 0 86 -14 108 -71 108 -50 0 -100 -40
-83 -66 13 -22 25 -26 44 -14 12 8 13 13 3 30 -18 28 -16 32 15 28 21 -2 28
-9 30 -30 3 -22 -3 -30 -30 -44 -42 -21 -78 -54 -78 -71 0 -8 -22 3 -55 28
-30 23 -55 47 -55 54 0 8 15 29 33 48 24 25 61 44 152 77 66 24 140 51 165 61
25 9 50 17 56 18 6 1 49 -29 95 -65z m-2234 -130 c92 -59 189 -121 215 -138
l48 -33 -102 -69 c-57 -38 -149 -106 -205 -152 l-103 -83 -204 138 c-236 159
-225 129 -90 247 84 74 250 196 266 196 5 0 84 -48 175 -106z m847 -5 c220
-162 275 -204 276 -211 0 -4 -35 -26 -77 -49 -43 -24 -135 -78 -205 -121 -71
-43 -130 -78 -133 -78 -3 0 -42 28 -88 63 -45 34 -137 100 -204 146 -106 73
-120 86 -105 96 64 43 406 234 421 235 2 0 54 -37 115 -81z m797 -51 l21 -42
27 33 26 32 105 -81 c115 -90 288 -241 289 -253 1 -4 -9 -11 -22 -16 -53 -20
-385 -174 -414 -193 -21 -12 -40 -17 -54 -13 -14 5 -18 10 -10 14 8 6 -3 41
-40 120 -58 123 -49 119 -98 52 l-18 -23 -131 93 c-72 52 -131 96 -131 99 -1
5 410 219 421 220 4 0 17 -19 29 -42z m309 -3 c0 -31 -3 -35 -25 -35 -29 0
-32 16 -9 48 22 32 34 27 34 -13z m-1518 -233 c205 -144 247 -176 248 -184 0
-4 -42 -35 -92 -69 -51 -34 -143 -100 -205 -146 l-112 -84 -198 141 c-109 78
-199 144 -200 148 -4 14 373 298 399 301 4 1 76 -48 160 -107z m-800 -58 l200
-136 -74 -66 c-40 -37 -119 -111 -175 -165 l-102 -99 -58 53 c-115 105 -243
234 -243 244 1 23 229 305 246 305 3 0 96 -61 206 -136z m1649 -1 c86 -61 146
-111 142 -117 -3 -6 -15 -24 -26 -39 -10 -16 -18 -30 -16 -32 2 -2 42 -9 89
-15 87 -12 109 -19 128 -42 9 -11 -4 -22 -65 -52 -42 -21 -139 -74 -216 -118
-123 -70 -141 -78 -155 -65 -78 66 -275 225 -350 281 -80 61 -89 71 -74 81 82
55 372 224 386 224 5 1 76 -47 157 -106z m1051 -222 l193 -189 -130 -65 c-72
-35 -172 -88 -224 -116 l-93 -51 -177 158 c-97 86 -194 172 -215 189 -22 18
-38 34 -35 37 16 15 463 225 482 226 4 0 94 -85 199 -189z m-1509 -8 c61 -48
163 -129 226 -181 l113 -95 -133 -86 c-74 -48 -167 -113 -208 -144 -40 -31
-75 -57 -78 -57 -10 0 -143 111 -143 118 0 5 5 13 11 19 6 6 8 16 5 22 -10 16
-36 14 -42 -3 -4 -11 -40 11 -132 81 -70 53 -133 102 -140 108 -11 10 -1 22
51 63 72 58 338 241 350 242 4 0 58 -39 120 -87z m-787 -49 c99 -69 187 -134
197 -143 18 -17 16 -20 -45 -68 -35 -28 -119 -100 -188 -162 -69 -61 -128
-111 -131 -111 -12 0 -369 279 -369 288 0 6 248 244 300 287 23 19 45 35 50
35 4 0 88 -57 186 -126z m1663 -51 c149 -130 356 -318 355 -322 -1 -3 -57 -37
-125 -76 -68 -39 -161 -94 -207 -123 l-82 -52 -153 137 c-83 76 -183 165 -220
197 -37 33 -64 63 -60 67 4 4 55 34 112 67 102 58 105 60 115 39 13 -25 26
-30 46 -17 12 8 13 13 3 30 -18 28 -16 32 15 28 21 -2 28 -9 30 -30 3 -22 -3
-30 -30 -44 -74 -37 -97 -80 -57 -107 22 -16 52 -12 69 8 9 11 15 10 30 -5 20
-20 51 -17 71 6 9 11 8 14 -5 14 -13 0 -16 12 -16 72 0 80 -15 108 -59 108
-22 1 -17 6 29 30 30 16 59 29 64 30 5 0 39 -26 75 -57z m-169 -138 c0 -31 -3
-35 -25 -35 -29 0 -32 16 -9 48 22 32 34 27 34 -13z m1128 -97 c162 -180 262
-302 254 -309 -4 -4 -43 -20 -87 -37 -44 -17 -134 -55 -200 -85 l-120 -54
-203 195 c-162 157 -200 198 -190 208 17 16 400 214 414 214 7 0 66 -60 132
-132z m-2243 7 c68 -53 127 -100 130 -104 2 -5 -11 -28 -30 -52 -27 -34 -31
-46 -22 -57 9 -12 18 -6 52 32 l40 47 68 -57 c40 -33 65 -60 59 -66 -4 -4 -43
-36 -85 -71 -42 -34 -121 -102 -177 -151 l-101 -89 -22 20 c-12 11 -115 89
-229 172 -115 84 -208 154 -208 156 0 6 255 231 315 278 33 26 66 45 73 42 7
-2 69 -48 137 -100z m809 1 c39 -32 341 -299 380 -336 18 -17 15 -20 -90 -91
-60 -40 -155 -106 -212 -146 -56 -41 -107 -73 -112 -71 -5 2 -87 75 -182 164
-95 88 -190 176 -212 195 l-38 35 58 44 c77 59 346 239 358 240 5 0 27 -15 50
-34z m966 -227 c0 -3 -12 -12 -27 -19 -23 -11 -25 -14 -10 -17 15 -4 17 -17
17 -103 0 -85 -2 -99 -17 -103 -10 -3 5 -5 32 -6 38 0 46 2 33 10 -15 9 -18
26 -18 119 0 61 3 110 8 110 4 0 67 -60 141 -134 l133 -133 -108 -58 c-60 -32
-158 -87 -217 -123 l-108 -65 -194 193 c-107 107 -192 197 -189 201 5 9 132
87 294 181 l115 66 58 -56 c31 -31 57 -59 57 -63z m1200 -75 c46 -53 132 -145
191 -204 60 -59 109 -110 109 -113 0 -10 -130 -88 -235 -140 -116 -58 -219
-100 -399 -163 l-108 -38 -57 60 c-31 33 -127 135 -214 227 l-159 167 34 14
c18 8 69 31 113 51 119 55 257 106 271 101 13 -5 154 -170 154 -180 0 -4 -19
-27 -42 -52 l-41 -45 79 3 79 3 74 -92 c41 -51 78 -93 83 -93 13 0 5 12 -79
117 -40 51 -73 97 -73 102 0 6 -4 11 -10 11 -5 0 -16 11 -25 23 -14 22 -13 27
7 65 21 39 22 44 8 69 -24 42 -63 52 -99 25 l-30 -22 -32 41 c-17 22 -30 42
-27 44 4 4 328 113 340 114 3 1 43 -42 88 -95z m-3335 -82 c353 -259 509 -385
700 -566 l80 -75 -192 -1 -192 0 -104 55 c-57 30 -107 55 -110 55 -4 0 -7 -22
-7 -48 l0 -49 -181 -7 c-100 -3 -183 -5 -185 -3 -2 2 82 111 186 243 105 131
188 243 187 248 -10 30 -43 -4 -209 -213 -159 -200 -183 -227 -185 -204 -1 16
-4 76 -5 136 l-3 107 48 0 c26 0 47 3 47 6 0 3 -25 50 -55 103 l-55 97 0 143
c0 111 3 141 13 135 6 -5 107 -78 222 -162z m744 71 c79 -68 371 -344 371
-352 0 -3 -24 -23 -53 -43 -28 -21 -110 -85 -181 -142 l-130 -103 -115 105
c-64 57 -159 138 -211 180 -52 41 -99 78 -103 82 -11 10 340 320 362 320 2 0
29 -21 60 -47z m1041 -253 l195 -190 -25 -20 c-14 -11 -30 -20 -36 -20 -7 0
-20 29 -29 65 -10 36 -22 65 -26 65 -12 0 -12 0 10 -80 l20 -69 -107 -78 c-59
-43 -142 -106 -184 -140 -42 -35 -79 -63 -82 -63 -2 0 -37 42 -77 93 -40 50
-124 146 -185 213 l-113 121 52 39 c86 65 370 254 382 254 6 0 98 -86 205
-190z m1261 160 c13 -7 19 -21 19 -43 0 -55 -12 -59 -49 -16 -27 32 -31 43
-21 54 15 18 25 19 51 5z m-335 -389 c85 -90 151 -167 147 -171 -4 -4 -64 -28
-133 -55 -69 -26 -142 -56 -162 -67 -31 -15 -38 -16 -38 -4 0 8 11 91 25 186
28 195 28 190 17 190 -5 0 -22 -90 -37 -201 l-28 -200 -51 -27 c-28 -15 -54
-28 -57 -30 -3 -1 -78 77 -166 175 -89 98 -173 189 -187 202 -14 14 -26 28
-26 31 0 11 90 65 265 161 l160 88 59 -57 c32 -31 128 -131 212 -221z m364
228 c10 -17 7 -19 -31 -19 l-42 0 23 25 c25 26 34 25 50 -6z m-1820 -245 c63
-69 145 -165 181 -213 l66 -86 -160 -155 c-88 -85 -168 -161 -178 -168 -16
-11 -23 -5 -70 65 -70 105 -137 189 -242 305 l-88 97 148 118 c180 143 205
162 218 163 6 0 62 -57 125 -126z m966 -207 c79 -87 144 -162 144 -165 0 -4
-34 -29 -76 -56 -42 -28 -106 -74 -142 -103 -45 -35 -69 -48 -73 -40 -9 16
-160 559 -157 562 2 1 19 11 38 23 l35 21 44 -42 c24 -23 108 -113 187 -200z
m-242 -103 l80 -285 -99 -99 c-54 -54 -102 -97 -106 -94 -4 2 -53 80 -110 172
-56 92 -123 194 -149 227 -66 85 -65 81 -24 117 40 36 316 246 324 247 3 1 41
-127 84 -285z m-402 -86 c29 -39 101 -148 159 -242 l106 -171 -34 -40 c-99
-117 -238 -293 -298 -379 -37 -53 -69 -95 -71 -93 -2 2 -19 55 -38 118 -44
145 -101 282 -179 432 l-61 117 84 86 c90 92 260 244 271 244 4 0 31 -32 61
-72z m836 -522 c-51 -349 -85 -561 -90 -550 -22 54 -237 849 -231 854 35 30
158 123 197 150 59 40 199 120 203 116 1 -1 -34 -258 -79 -570z"/>
<path d="M4155 3825 c-34 -33 -32 -50 3 -25 52 38 92 -5 65 -70 -7 -19 -35
-56 -61 -82 l-46 -48 76 0 c60 0 77 3 82 16 10 27 7 39 -6 26 -7 -7 -32 -12
-56 -12 l-44 0 46 51 c28 31 48 64 52 87 6 31 3 39 -20 59 -35 30 -61 29 -91
-2z"/>
<path d="M3080 3454 c-57 -25 -106 -47 -109 -49 -3 -4 33 -37 63 -57 6 -4 -2
-22 -22 -47 -37 -46 -37 -47 -16 -55 11 -4 27 6 49 31 l32 37 37 -29 c20 -15
38 -26 40 -24 7 8 43 239 37 238 -3 0 -53 -21 -111 -45z"/>
<path d="M2816 3052 c-47 -58 -53 -69 -41 -81 12 -13 17 -11 34 10 10 13 35
44 55 69 40 51 42 56 21 64 -10 3 -33 -17 -69 -62z"/>
<path d="M3737 3034 c-29 -16 -37 -27 -12 -18 13 5 15 -10 15 -99 0 -92 -2
-106 -17 -110 -10 -3 5 -5 32 -5 28 0 44 2 38 5 -9 3 -13 37 -13 118 0 63 -3
116 -8 118 -4 3 -19 -1 -35 -9z"/>
<path d="M2343 2829 c14 -8 17 -25 17 -94 0 -69 -3 -86 -17 -94 -14 -8 -2 -10
46 -11 56 0 62 2 47 13 -16 11 -18 24 -14 75 5 70 18 93 42 72 22 -18 48 -5
44 22 -4 31 -35 34 -64 7 l-24 -22 0 21 c0 20 -5 22 -47 22 -38 -1 -44 -3 -30
-11z"/>
<path d="M2375 2499 c-41 -54 -53 -74 -43 -80 21 -14 23 -12 70 49 59 76 60
78 44 91 -11 10 -25 -2 -71 -60z"/>
<path d="M3990 2525 c-23 -24 -16 -37 8 -13 22 22 22 2 2 -57 -24 -70 -25
-101 -4 -109 21 -8 47 7 79 46 l26 33 -6 -36 c-4 -22 -3 -39 4 -43 15 -10 48
10 62 37 12 22 12 22 -10 3 -27 -24 -27 -12 -1 74 24 79 25 92 4 88 -15 -3
-45 -65 -47 -100 -1 -9 -3 -16 -4 -14 -2 2 -20 -13 -40 -33 -45 -44 -52 -30
-29 50 9 29 16 63 16 76 0 31 -30 30 -60 -2z"/>
<path d="M4860 2345 c-23 -24 -16 -37 8 -13 22 22 22 2 2 -57 -24 -70 -25
-101 -4 -109 21 -8 47 7 79 46 l26 33 -6 -36 c-4 -22 -3 -39 4 -43 15 -10 48
10 62 37 12 22 12 22 -10 3 -27 -24 -27 -12 -1 74 24 79 25 92 4 88 -15 -3
-45 -65 -47 -100 -1 -9 -3 -16 -4 -14 -2 2 -20 -13 -40 -33 -45 -44 -52 -30
-29 50 9 29 16 63 16 76 0 31 -30 30 -60 -2z"/>
<path d="M5065 3816 c-38 -38 -33 -78 15 -129 50 -55 62 -86 46 -118 -17 -35
-78 -39 -100 -7 -9 12 -16 34 -16 48 -1 36 -16 6 -25 -50 -6 -37 -5 -43 6 -34
8 7 22 8 34 3 46 -18 95 -10 126 20 45 45 40 79 -22 147 -41 46 -50 61 -47 87
3 29 7 32 40 35 28 2 40 -2 52 -20 9 -12 16 -32 16 -43 1 -29 16 0 24 45 l6
35 -65 3 c-58 2 -68 0 -90 -22z"/>
<path d="M1464 2562 c-77 -62 -47 -202 43 -202 26 0 42 8 64 31 16 18 27 34
24 38 -4 3 -11 -2 -16 -12 -6 -10 -22 -17 -40 -17 -25 0 -33 6 -45 35 -7 19
-14 37 -14 40 0 3 27 5 60 5 33 0 60 2 60 5 0 3 -6 21 -14 40 -23 54 -80 72
-122 37z m70 -18 c13 -33 6 -44 -24 -44 -32 0 -36 9 -20 41 13 23 36 25 44 3z"/>
<path d="M7140 2572 c-25 -8 -50 -34 -50 -51 1 -14 2 -14 14 2 16 21 59 22 76
2 21 -26 3 -75 -51 -137 l-50 -58 70 0 c59 0 72 3 81 19 14 26 13 38 -2 23 -7
-7 -31 -12 -55 -12 l-43 0 45 55 c44 55 57 100 37 132 -10 16 -54 31 -72 25z"/>
<path d="M1676 2529 c-35 -28 -33 -42 4 -21 27 16 30 16 46 0 21 -21 12 -64
-17 -73 -20 -7 -19 -8 10 -26 24 -14 31 -26 31 -49 0 -36 -30 -56 -59 -40 -27
14 -41 13 -41 -4 0 -36 100 -24 120 14 17 33 12 87 -10 103 -18 13 -19 16 -5
27 22 18 18 56 -7 74 -29 21 -40 20 -72 -5z"/>
<path d="M6871 2401 c-11 -7 -9 -10 9 -13 18 -2 27 -13 36 -43 10 -36 9 -44
-11 -75 -15 -24 -30 -35 -46 -35 -28 0 -33 -28 -7 -33 11 -2 28 12 47 39 26
35 32 39 37 23 15 -47 25 -64 37 -64 18 0 47 32 47 51 -1 10 -3 9 -11 -3 -16
-29 -26 -21 -39 32 -10 44 -10 54 5 76 11 16 24 24 38 22 14 -2 23 3 25 15 6
29 -35 20 -60 -13 l-22 -30 -12 30 c-13 31 -43 40 -73 21z"/>
<path d="M2434 1752 c-77 -62 -47 -202 43 -202 26 0 42 8 64 31 16 18 27 34
24 38 -4 3 -11 -2 -16 -12 -6 -10 -22 -17 -40 -17 -25 0 -33 6 -45 35 -7 19
-14 37 -14 40 0 3 27 5 60 5 33 0 60 2 60 5 0 3 -6 21 -14 40 -23 54 -80 72
-122 37z m70 -18 c13 -33 6 -44 -24 -44 -32 0 -36 9 -20 41 13 23 36 25 44 3z"/>
<path d="M2620 1680 c-11 -11 -20 -27 -20 -35 0 -12 4 -11 20 5 35 35 80 20
80 -27 0 -34 -22 -72 -69 -117 -22 -22 -38 -43 -35 -48 3 -4 34 -8 69 -8 53 0
66 3 75 19 5 11 10 21 10 23 0 2 -22 1 -50 0 -27 -2 -50 0 -50 5 0 5 13 22 30
38 37 35 63 90 55 115 -16 51 -78 67 -115 30z"/>
<path d="M1507 1389 c-51 -30 -63 -129 -21 -178 35 -42 79 -42 119 -1 16 16
26 32 23 35 -3 3 -11 -1 -18 -10 -15 -18 -54 -20 -67 -2 -6 6 -13 24 -17 40
-6 27 -6 27 49 27 61 0 67 8 40 59 -20 41 -67 54 -108 30z m61 -42 c3 -23 0
-27 -22 -27 -21 0 -26 5 -26 23 0 13 3 27 7 31 15 14 38 0 41 -27z"/>
<path d="M1700 1335 c-19 -11 -21 -14 -7 -15 15 0 17 -12 17 -100 0 -82 -3
-100 -15 -100 -8 0 -15 -4 -15 -10 0 -5 20 -10 45 -10 25 0 45 5 45 10 0 6 -7
10 -15 10 -12 0 -15 19 -15 115 0 63 -3 115 -7 115 -5 -1 -19 -7 -33 -15z"/>
<path d="M288 764 c-30 -16 -38 -27 -13 -18 13 5 15 -9 15 -94 0 -86 -3 -103
-17 -111 -14 -8 -7 -10 31 -11 39 0 47 3 38 12 -8 8 -12 50 -12 125 0 62 -3
113 -7 113 -5 -1 -20 -8 -35 -16z"/>
<path d="M62 623 c-10 -4 -7 -9 9 -17 18 -9 27 -29 44 -95 11 -47 26 -86 34
-89 14 -5 61 36 61 52 0 6 -7 2 -15 -8 -19 -25 -29 -14 -43 42 -8 36 -7 45 10
67 11 14 28 24 40 22 25 -3 36 21 13 29 -10 4 -27 -4 -45 -21 -17 -16 -31 -27
-32 -24 -2 2 -8 13 -14 24 -11 20 -38 28 -62 18z"/>
<path d="M81 479 c-16 -21 -28 -28 -41 -24 -21 7 -37 -12 -22 -27 16 -16 45
-1 71 37 30 44 23 56 -8 14z"/>
<path d="M3763 492 c-32 -3 -47 -22 -18 -22 8 0 15 -1 15 -2 0 -2 -6 -23 -14
-48 -13 -43 -15 -45 -48 -42 -62 6 -130 -71 -130 -146 0 -23 7 -41 18 -49 25
-18 29 -17 70 19 31 27 36 29 30 12 -4 -13 -1 -26 8 -33 11 -9 20 -6 45 15 18
15 29 29 26 32 -2 3 -15 -3 -26 -14 -21 -19 -22 -19 -16 1 3 11 22 75 42 143
20 68 35 126 33 130 -2 4 -18 6 -35 4z m-49 -144 c20 -33 -65 -161 -95 -142
-26 16 10 131 48 153 22 13 33 10 47 -11z"/>
<path d="M3864 455 c-4 -9 -2 -21 4 -27 15 -15 44 -1 40 19 -4 23 -36 29 -44
8z"/>
<path d="M4455 417 c-8 -13 -28 -30 -43 -37 -22 -11 -24 -14 -9 -17 9 -3 17
-5 17 -6 0 -1 -9 -34 -20 -72 -24 -84 -25 -101 -5 -109 15 -5 80 42 70 52 -2
3 -14 -3 -25 -13 -26 -23 -26 -11 0 76 17 55 25 69 40 69 11 0 20 5 20 10 0 6
-7 10 -16 10 -12 0 -14 7 -9 30 8 36 1 38 -20 7z"/>
<path d="M2832 360 c-42 -26 -72 -76 -72 -121 0 -72 73 -93 132 -39 l33 30
-42 -23 c-33 -17 -46 -20 -60 -11 -22 14 -28 67 -12 106 23 57 103 95 97 46
-4 -29 11 -38 25 -16 8 12 7 21 -2 32 -18 22 -59 20 -99 -4z"/>
<path d="M3020 354 c-60 -51 -78 -126 -40 -164 53 -53 157 7 175 101 15 78
-69 118 -135 63z m88 4 c18 -18 14 -58 -12 -114 -25 -53 -46 -69 -77 -59 -26
9 -25 74 1 125 28 54 63 73 88 48z"/>
<path d="M3250 354 c-60 -51 -78 -126 -40 -164 53 -53 157 7 175 101 15 78
-69 118 -135 63z m88 4 c18 -18 14 -58 -12 -114 -25 -53 -46 -69 -77 -59 -26
9 -25 74 1 125 28 54 63 73 88 48z"/>
<path d="M3435 370 c-17 -7 -17 -9 -2 -9 22 -1 22 -24 -3 -103 -24 -78 -24
-78 0 -78 11 0 20 7 20 15 0 9 7 32 17 53 9 20 17 49 18 63 1 14 6 35 9 47 6
18 4 22 -16 21 -13 0 -32 -4 -43 -9z"/>
<path d="M3522 347 c-18 -18 -32 -37 -32 -42 1 -6 10 1 21 14 17 21 23 23 40
13 17 -11 21 -9 28 10 18 49 -12 51 -57 5z"/>
<path d="M3825 370 c-17 -7 -17 -9 -2 -9 22 -1 21 -11 -3 -96 -24 -84 -24 -81
-5 -89 14 -5 80 42 71 51 -3 3 -13 -2 -22 -11 -9 -9 -18 -15 -20 -13 -3 3 19
87 41 156 5 17 2 21 -17 20 -13 0 -32 -4 -43 -9z"/>
<path d="M3950 370 c-17 -5 -19 -8 -7 -9 22 -1 21 -21 -3 -101 -24 -78 -24
-80 -6 -80 8 0 27 26 41 59 27 59 79 120 92 108 3 -4 -1 -34 -10 -67 -19 -67
-21 -96 -8 -104 11 -7 75 44 66 52 -3 3 -12 -3 -20 -14 -13 -17 -14 -18 -15
-1 0 9 7 44 16 76 9 33 14 66 11 75 -10 27 -43 18 -82 -21 -38 -39 -40 -36
-18 25 6 13 -18 14 -57 2z"/>
<path d="M4223 365 c-48 -34 -90 -124 -76 -161 11 -29 42 -36 73 -17 17 9 30
21 30 25 0 12 -14 10 -28 -4 -9 -9 -16 -9 -28 4 -13 13 -14 21 -3 58 14 47 62
104 81 98 21 -7 21 -66 0 -102 -21 -36 -19 -81 3 -90 15 -6 65 30 65 46 0 6
-9 3 -20 -7 -25 -22 -25 -28 4 78 23 84 23 87 5 87 -10 0 -19 -5 -19 -12 0 -9
-3 -9 -12 0 -16 16 -49 15 -75 -3z"/>
<path d="M4573 361 c-41 -26 -63 -60 -70 -108 -9 -72 61 -100 131 -52 42 29
40 37 -4 14 -39 -20 -76 -13 -85 16 -8 24 8 39 41 39 12 0 36 10 55 23 26 17
34 30 34 52 0 27 -3 30 -35 33 -21 1 -47 -5 -67 -17z m72 -1 c10 -17 -20 -56
-55 -70 -17 -7 -33 -10 -36 -8 -10 11 21 60 45 73 32 17 38 18 46 5z"/>
<path d="M4885 361 c-38 -22 -65 -62 -72 -105 -12 -75 80 -109 136 -50 l26 27
-27 -16 c-64 -40 -107 -9 -88 62 10 39 59 91 84 91 20 0 27 -12 14 -27 -8 -10
-8 -17 1 -26 10 -9 15 -8 26 7 36 48 -38 75 -100 37z"/>
<path d="M5030 355 c-13 -14 -18 -25 -12 -25 6 0 14 5 17 10 3 6 10 10 14 10
5 0 -1 -36 -13 -80 -17 -67 -19 -82 -7 -89 21 -14 49 -1 82 36 l30 35 -6 -35
c-4 -22 -3 -37 5 -42 14 -8 61 24 68 46 3 9 -2 8 -17 -5 -26 -23 -26 -19 -1
69 24 82 24 95 7 95 -7 0 -24 -25 -36 -56 -25 -58 -91 -138 -98 -117 -2 7 5
45 16 84 11 40 18 76 15 81 -10 16 -41 8 -64 -17z"/>
<path d="M5265 370 c-17 -7 -17 -9 -2 -9 22 -1 21 -21 -3 -99 -11 -35 -20 -68
-20 -73 0 -16 31 -9 37 9 11 35 44 98 62 122 16 20 22 22 34 11 13 -10 18 -9
29 8 31 50 51 17 63 -99 l7 -75 51 55 c73 79 104 160 62 160 -20 0 -28 -19
-15 -35 13 -16 -2 -50 -44 -100 l-25 -30 -1 45 c0 25 -5 62 -10 82 l-11 37
-56 -3 c-51 -2 -60 -6 -85 -37 -31 -37 -32 -37 -19 9 9 29 8 32 -12 31 -12 0
-31 -4 -42 -9z"/>
<path d="M5680 354 c-37 -32 -60 -74 -60 -111 0 -34 8 -46 38 -62 28 -15 80 0
107 29 21 23 9 26 -19 5 -37 -28 -86 -13 -86 26 0 13 16 22 55 34 60 17 91 50
80 85 -10 31 -74 28 -115 -6z m80 -9 c0 -18 -10 -31 -32 -45 -18 -11 -39 -20
-45 -20 -22 0 -14 31 16 61 37 36 61 38 61 4z"/>
<path d="M5854 355 c-15 -23 -15 -27 5 -57 36 -57 44 -76 37 -93 -10 -26 -49
-14 -65 20 l-15 30 -7 -25 c-15 -52 -12 -55 41 -54 90 3 114 51 60 119 -34 42
-36 70 -5 70 12 0 25 -12 34 -30 l15 -30 7 25 c12 43 10 46 -41 48 -43 2 -52
-1 -66 -23z"/>
</g>
</svg>
